<?xml version="1.0" standalone="no"?>
<!DOCTYPE svg PUBLIC "-//W3C//DTD SVG 20010904//EN"
 "http://www.w3.org/TR/2001/REC-SVG-20010904/DTD/svg10.dtd">
<svg version="1.0" xmlns="http://www.w3.org/2000/svg"
 width="659.000000pt" height="659.000000pt" viewBox="0 0 659.000000 659.000000"
 preserveAspectRatio="xMidYMid meet">
<metadata>
Created by potrace 1.14, written by Peter Selinger 2001-2017
</metadata>
<g transform="translate(0.000000,659.000000) scale(0.100000,-0.100000)"
fill="#000000" stroke="none">
<path d="M2635 6539 c-27 -5 -102 -13 -165 -18 -119 -10 -384 -67 -472 -102
-46 -18 -90 -45 -260 -161 -42 -29 -102 -57 -165 -78 -259 -85 -383 -174 -484
-347 -73 -125 -84 -162 -84 -288 0 -95 5 -126 33 -223 l33 -112 -19 -28 c-101
-142 -139 -281 -149 -547 -9 -250 17 -449 111 -850 14 -60 26 -123 27 -140 1
-30 1 -30 8 -4 9 29 31 72 41 79 3 3 15 24 27 47 11 23 23 39 27 36 4 -4 4 0
1 9 -9 23 43 97 100 144 25 20 45 44 45 54 0 10 6 21 13 23 9 4 9 6 -1 6 -8 1
-10 6 -6 13 8 13 7 169 -3 288 -4 41 -6 90 -6 108 0 20 -3 28 -9 20 -11 -18
-10 -5 2 26 5 15 6 28 0 31 -10 6 -7 99 5 130 6 17 5 18 -5 5 -10 -13 -11 -12
-5 5 4 11 11 34 15 50 36 138 133 296 232 379 76 64 214 119 353 141 144 23
216 21 535 -11 140 -14 529 -14 695 1 150 13 398 23 423 16 15 -4 79 -8 142
-10 135 -3 316 -37 411 -76 35 -15 87 -44 116 -66 75 -56 195 -211 197 -255 1
-6 9 -26 18 -45 18 -37 29 -65 34 -89 8 -37 23 -98 32 -126 6 -19 6 -37 0 -47
-12 -22 1 -45 14 -26 8 11 9 11 5 -1 -2 -8 -10 -14 -16 -12 -7 1 -11 -15 -11
-44 0 -27 4 -43 10 -39 6 3 7 -1 4 -9 -3 -9 -10 -14 -14 -11 -5 3 -12 0 -16
-6 -4 -7 -3 -9 4 -5 6 3 13 2 16 -3 4 -5 2 -12 -2 -15 -12 -7 -15 -113 -3
-120 6 -4 4 -17 -4 -33 -11 -21 -12 -30 -2 -42 10 -12 9 -13 -2 -6 -11 6 -13
1 -8 -26 3 -19 0 -53 -6 -75 -9 -35 -8 -46 6 -68 14 -21 15 -24 2 -20 -10 4
-15 0 -15 -10 0 -9 -7 -16 -16 -16 -11 0 -14 5 -9 18 5 13 4 14 -6 5 -10 -10
-7 -17 12 -35 132 -124 174 -248 173 -503 0 -169 -14 -251 -58 -345 l-21 -45
-3 94 c-2 55 -8 101 -15 110 -9 11 -9 13 0 8 21 -13 33 61 33 203 0 177 -25
280 -89 367 -29 40 -130 123 -154 127 -7 1 -23 8 -36 15 -35 19 -143 49 -246
67 -64 11 -156 16 -320 17 -255 0 -311 -8 -409 -63 -57 -33 -148 -120 -126
-120 8 -1 2 -8 -15 -17 l-30 -17 25 -7 c14 -4 20 -7 13 -8 -16 -1 -43 -30 -43
-44 0 -7 5 -4 11 6 16 27 26 20 21 -14 -3 -20 -12 -33 -23 -36 -16 -5 -19 -15
-19 -76 0 -59 14 -140 27 -157 2 -2 7 1 12 8 4 6 7 -4 7 -23 0 -21 -3 -30 -8
-22 -5 8 -8 7 -8 -6 0 -10 7 -20 15 -23 8 -4 15 -14 15 -25 0 -23 21 -69 32
-69 4 0 8 -8 8 -17 0 -15 2 -16 10 -3 8 12 10 12 16 -3 9 -26 21 -21 33 14 14
42 72 127 109 162 l29 28 5 -73 c5 -80 35 -160 65 -176 13 -7 48 -3 123 14 58
13 157 31 220 40 193 27 183 23 193 74 10 56 1 122 -23 178 -11 23 -17 42 -14
42 3 0 30 -12 61 -27 56 -28 146 -112 172 -161 l14 -27 21 44 21 43 -31 58
c-28 53 -29 58 -10 48 43 -23 138 -137 184 -220 28 -50 30 -58 15 -58 -11 0 0
-11 25 -26 48 -29 72 -68 72 -116 0 -43 -27 -184 -40 -208 -6 -11 -13 -61 -16
-112 -2 -51 -6 -102 -8 -113 -4 -29 -37 -175 -47 -207 -4 -15 -5 -38 -3 -50 8
-33 5 -95 -7 -125 -5 -15 -13 -84 -16 -155 -6 -126 -6 -129 18 -154 34 -37 77
-26 132 33 51 55 54 60 59 97 6 51 -18 39 -73 -36 -60 -82 -70 -91 -83 -78 -6
6 -4 16 6 27 16 19 47 75 130 233 106 202 97 190 151 190 26 0 47 -5 47 -10 0
-6 8 -5 20 2 11 7 20 16 20 21 0 4 26 47 57 95 31 48 65 102 75 121 37 71 9
37 -67 -84 -44 -69 -82 -125 -85 -125 -3 0 -18 11 -34 23 l-29 24 28 97 c15
54 34 110 41 125 8 14 14 34 14 44 0 11 5 15 11 11 7 -4 9 0 5 14 -4 11 -2 23
4 27 6 3 8 11 4 16 -3 5 -1 15 4 22 9 12 19 53 28 123 2 20 11 68 19 107 13
63 20 77 57 111 23 21 53 45 65 53 26 17 46 79 41 126 -3 28 -6 32 -30 30 -40
-3 -135 -103 -177 -186 -18 -37 -37 -67 -42 -67 -15 0 -22 52 -23 165 0 95 2
113 19 133 11 12 27 22 37 22 10 0 23 9 30 20 7 11 20 20 29 20 9 0 22 7 29
15 17 21 1 19 -38 -5 -35 -21 -72 -26 -72 -10 0 5 11 49 25 96 29 99 58 261
75 409 6 55 16 138 21 185 6 47 10 171 10 276 -1 273 -27 389 -117 521 -40 57
-46 74 -55 146 -12 99 -22 130 -66 184 -44 55 -50 74 -52 168 -3 102 -6 116
-49 199 -29 56 -51 81 -112 129 -41 34 -106 93 -145 132 -122 125 -293 235
-510 330 -175 77 -310 113 -555 149 -228 34 -509 45 -625 25z m1892 -2191 c-3
-8 -6 -5 -6 6 -1 11 2 17 5 13 3 -3 4 -12 1 -19z m-40 -40 c-3 -8 -6 -5 -6 6
-1 11 2 17 5 13 3 -3 4 -12 1 -19z m-472 -302 c50 -9 113 -23 141 -31 88 -25
244 -126 244 -158 0 -9 2 -9 8 0 6 9 11 8 18 -5 8 -13 8 -20 -1 -29 -10 -9
-16 -6 -25 17 -6 16 -20 36 -30 45 -17 15 -18 15 -16 -9 0 -17 6 -24 14 -21 6
2 12 -3 12 -11 0 -11 -5 -14 -16 -10 -14 5 -15 4 -5 -8 6 -7 9 -21 5 -30 -3
-9 -2 -16 3 -16 4 0 9 -13 9 -30 1 -16 -2 -30 -7 -30 -4 0 -1 -12 7 -27 12
-25 12 -29 -3 -40 -15 -12 -15 -13 3 -13 14 0 16 -2 5 -9 -7 -5 -9 -11 -4 -14
10 -7 5 -67 -6 -67 -3 0 -18 20 -33 43 -25 40 -96 112 -173 177 -67 56 -190
119 -233 120 -7 0 -20 6 -28 14 -14 15 -117 49 -144 48 -8 0 -58 4 -110 10
-117 12 -381 15 -398 4 -8 -4 -15 -6 -18 -3 -6 6 65 54 109 72 66 27 145 34
367 30 141 -2 246 -9 305 -19z m459 -9 c7 -6 6 -7 -4 -4 -8 2 -16 12 -17 23
-2 13 -1 15 4 4 3 -8 11 -19 17 -23z m-4 -97 c0 -5 -2 -10 -4 -10 -3 0 -8 5
-11 10 -3 6 -1 10 4 10 6 0 11 -4 11 -10z m-774 -111 c32 -7 65 -17 73 -23 11
-8 13 -8 8 1 -6 9 2 9 30 -1 21 -7 62 -17 91 -21 28 -4 55 -11 58 -17 4 -6 -1
-8 -12 -5 -97 30 -358 33 -375 5 -4 -6 -12 -7 -18 -4 -6 4 -11 2 -11 -5 0 -7
-3 -10 -6 -6 -8 8 -85 -45 -140 -95 -23 -21 -45 -34 -49 -30 -5 4 -5 2 -2 -4
8 -14 -17 -37 -28 -26 -5 4 -5 1 -1 -6 9 -14 -28 -65 -39 -54 -5 4 -5 2 -2 -4
3 -5 -2 -23 -12 -38 l-18 -27 -16 25 c-13 19 -14 31 -7 58 7 22 7 34 0 36 -5
2 -10 20 -10 41 0 20 -4 41 -10 47 -22 22 121 136 188 150 8 1 16 5 20 8 10
11 227 6 288 -5z m-499 -178 c-1 -11 -6 -17 -14 -14 -9 4 -11 0 -7 -11 4 -11
1 -16 -10 -16 -20 0 -20 10 0 38 19 27 33 29 31 3z m432 -22 c12 -22 12 -29 0
-55 -28 -58 -119 -37 -119 27 0 58 90 80 119 28z m-477 -61 c-8 -8 -9 -4 -5
13 4 13 8 18 11 10 2 -7 -1 -18 -6 -23z m78 -113 c0 -5 -5 -3 -10 5 -5 8 -10
20 -10 25 0 6 5 3 10 -5 5 -8 10 -19 10 -25z m0 -19 c0 -3 -4 -8 -10 -11 -5
-3 -10 -1 -10 4 0 6 5 11 10 11 6 0 10 -2 10 -4z"/>
<path d="M3220 3580 c0 -5 5 -10 11 -10 5 0 7 5 4 10 -3 6 -8 10 -11 10 -2 0
-4 -4 -4 -10z"/>
<path d="M1775 4440 c-134 -22 -223 -67 -301 -153 -63 -70 -89 -137 -52 -137
5 0 29 22 53 48 48 53 121 97 199 119 88 25 307 28 483 8 152 -18 156 -18 169
0 36 49 6 71 -134 101 -91 19 -332 27 -417 14z"/>
<path d="M3575 4444 c-116 -17 -168 -27 -222 -45 -66 -22 -76 -37 -50 -74 15
-20 35 -19 237 5 119 15 362 7 450 -14 89 -22 140 -50 217 -118 45 -40 70 -55
77 -48 27 27 -77 156 -174 215 -87 53 -189 75 -360 80 -80 2 -158 1 -175 -1z"/>
<path d="M1755 4040 c-119 -9 -285 -42 -358 -71 -124 -49 -244 -159 -267 -246
-23 -92 -25 -109 -25 -268 0 -176 16 -270 61 -360 29 -58 50 -82 42 -49 -3 12
-2 28 3 35 6 9 9 1 10 -26 l1 -40 13 31 c8 17 16 50 19 72 9 74 38 173 71 246
40 85 53 105 123 182 l54 59 -30 -55 c-28 -52 -28 -57 -15 -95 7 -22 20 -47
28 -55 13 -13 15 -11 15 12 0 36 98 142 163 174 27 14 50 24 52 22 2 -2 -6
-30 -17 -63 -24 -71 -21 -181 5 -200 9 -6 60 -17 114 -24 87 -11 161 -25 336
-61 27 -5 52 -10 57 -10 21 0 63 117 69 190 l6 75 58 -69 c31 -37 66 -85 77
-107 23 -44 33 -51 24 -15 -3 15 1 34 11 50 10 14 13 26 7 26 -6 0 -13 -6 -16
-12 -3 -7 -3 -2 0 12 3 14 15 32 27 41 11 9 18 23 14 31 -3 9 -1 35 4 58 8 33
7 45 -3 51 -7 5 -9 9 -4 9 5 0 1 9 -9 20 -10 11 -14 20 -9 20 11 0 -17 20 -29
20 -4 0 -6 -27 -5 -60 2 -33 8 -60 13 -60 6 0 4 -4 -2 -8 -12 -7 -11 -41 1
-61 3 -5 -1 -14 -9 -21 -11 -9 -15 -9 -15 -1 0 7 -12 24 -27 38 -16 15 -21 22
-13 18 35 -21 -129 139 -177 172 -30 20 -52 42 -49 49 6 15 -24 28 -36 16 -10
-10 -68 -3 -68 7 0 10 -259 6 -287 -4 -14 -4 -23 -3 -23 3 0 13 35 22 88 22
26 0 41 4 37 10 -3 6 0 10 7 11 20 0 76 7 144 17 33 4 103 7 154 5 82 -3 101
-7 164 -37 82 -40 148 -97 171 -146 l15 -35 -5 65 c-3 36 -6 84 -6 108 0 23
-4 42 -10 42 -5 0 -9 6 -8 13 10 61 -116 164 -254 206 -79 24 -318 35 -482 21z
m434 -25 c75 -16 171 -58 171 -76 0 -6 -17 -8 -45 -5 -33 3 -43 1 -38 -7 5 -9
3 -9 -8 0 -10 8 -40 11 -89 8 -137 -8 -225 -16 -259 -25 -19 -5 -38 -7 -42 -5
-17 11 -222 -79 -304 -133 -55 -36 -179 -166 -201 -210 -11 -21 -26 -48 -35
-62 -9 -14 -22 -43 -29 -65 -15 -49 -34 -73 -24 -30 4 17 11 38 16 48 5 9 6
17 3 17 -4 0 -3 6 2 12 4 7 6 26 4 42 -1 16 3 32 11 37 7 5 8 9 2 9 -9 0 -10
99 -1 235 1 22 -2 45 -6 52 -4 6 -3 14 3 18 5 3 10 11 10 17 0 6 -7 5 -17 -3
-12 -10 -15 -10 -9 -1 15 24 147 83 234 102 124 29 214 37 409 39 118 1 194
-4 242 -14z m-461 -290 c-2 -1 -16 -5 -33 -9 l-30 -6 25 14 c14 8 28 12 33 9
5 -3 7 -6 5 -8z m412 -5 c0 -5 -4 -10 -10 -10 -5 0 -10 5 -10 10 0 6 5 10 10
10 6 0 10 -4 10 -10z m-510 -24 c0 -2 -7 -7 -16 -10 -8 -3 -12 -2 -9 4 6 10
25 14 25 6z m274 -87 c29 -23 33 -54 10 -87 -30 -43 -114 -15 -114 38 0 24 42
70 63 70 8 0 26 -9 41 -21z m-627 -261 c-3 -8 -6 -5 -6 6 -1 11 2 17 5 13 3
-3 4 -12 1 -19z"/>
<path d="M1337 3873 c-10 -10 -8 -23 4 -23 5 0 7 5 3 12 -5 8 -2 9 10 5 10 -4
15 -3 11 3 -7 12 -19 13 -28 3z"/>
<path d="M2405 4008 c28 -17 782 -17 810 -1 16 10 -70 12 -405 12 -323 0 -420
-2 -405 -11z"/>
<path d="M2556 3943 c-6 -15 -8 -15 -16 -3 -6 9 -10 10 -10 3 0 -6 -9 -9 -22
-5 -14 3 -19 2 -14 -7 4 -6 12 -9 17 -6 5 4 9 0 9 -8 0 -8 7 -18 16 -21 13 -5
14 -4 6 7 -9 10 -8 14 3 14 8 0 15 -7 16 -16 0 -10 3 -11 5 -4 4 8 13 9 30 3
27 -11 33 4 7 16 -14 6 -10 9 17 13 19 4 40 2 46 -4 16 -14 -41 -47 -69 -40
-12 2 -16 2 -9 -1 6 -3 12 -10 12 -15 0 -10 -42 -5 -61 7 -8 5 -8 1 0 -15 16
-28 32 -27 86 10 26 18 68 40 93 51 26 10 36 17 23 14 -13 -3 -33 0 -44 6 -11
6 -42 13 -69 15 -39 4 -48 2 -48 -11 0 -9 -4 -16 -10 -16 -5 0 -7 7 -4 15 4 8
4 15 1 15 -3 0 -8 -8 -11 -17z"/>
<path d="M2988 3954 c-4 -3 -12 -7 -20 -8 -51 -10 -69 -19 -56 -27 19 -13 30
-11 22 4 -5 8 -2 8 9 -2 11 -8 17 -9 17 -3 0 6 7 9 15 6 8 -4 21 -1 29 5 8 7
19 10 26 9 7 -2 15 3 17 10 5 12 -48 18 -59 6z"/>
<path d="M3056 3935 c-3 -8 -15 -15 -27 -15 -25 0 -20 -10 8 -15 10 -2 18 -4
18 -5 0 -1 8 -3 18 -5 9 -2 24 6 32 18 17 24 15 30 -9 21 -14 -5 -15 -9 -4
-15 9 -6 6 -8 -9 -6 -17 1 -20 5 -12 19 6 11 6 18 0 18 -5 0 -11 -7 -15 -15z"/>
<path d="M2965 3892 c9 -9 65 -9 65 -1 0 6 -16 9 -35 7 -19 -1 -32 -4 -30 -6z"/>
<path d="M2716 3847 c-33 -17 -75 -46 -93 -63 l-33 -31 0 -109 c-1 -252 -90
-480 -257 -655 -170 -178 -384 -280 -638 -304 -81 -8 -209 12 -295 44 -154 58
-300 256 -343 468 -7 34 -20 70 -28 80 -9 10 -25 34 -35 53 -10 19 -38 61 -62
94 -47 66 -51 85 -24 109 21 19 54 22 83 6 27 -14 49 4 49 40 0 19 -3 22 -9
12 -7 -12 -14 -10 -36 8 -17 13 -42 21 -65 21 -152 0 -172 -277 -56 -791 29
-128 74 -240 118 -293 l32 -39 67 7 67 6 31 -93 c45 -132 150 -337 228 -447
82 -114 279 -315 423 -430 356 -284 619 -384 1010 -383 205 0 364 29 565 102
77 28 81 29 77 13 -1 -7 -7 -57 -14 -111 -20 -169 30 -467 102 -613 40 -81 76
-128 162 -216 111 -112 220 -176 403 -236 341 -112 631 -95 850 49 75 50 139
105 120 105 -4 0 -1 8 9 19 20 22 28 58 15 66 -5 4 -12 -1 -15 -9 -3 -9 -10
-13 -16 -10 -5 3 -16 -2 -24 -12 -9 -11 -13 -13 -9 -4 4 8 -2 6 -12 -6 -10
-11 -21 -20 -25 -20 -4 1 -17 -7 -29 -17 -11 -10 -26 -17 -32 -14 -7 2 -25 -4
-42 -14 -87 -54 -163 -76 -247 -73 -27 1 -48 -3 -48 -8 0 -5 -6 -6 -12 -1 -7
4 -49 8 -93 9 -44 0 -96 4 -115 8 -34 8 -45 12 -140 53 -25 11 -82 35 -127 53
-46 19 -83 37 -83 42 0 4 -5 8 -11 8 -6 0 -36 22 -67 50 -31 27 -60 50 -65 50
-10 0 -50 30 -115 87 -45 39 -117 134 -146 191 -30 58 -56 187 -61 298 -5 120
-13 220 -21 274 -9 57 -10 118 -1 113 6 -3 12 34 9 58 -2 13 96 125 128 147
24 17 28 22 13 17 -28 -8 -28 -4 -4 43 20 38 83 185 121 282 39 99 5 38 -70
-127 -40 -89 -77 -160 -82 -157 -13 8 -79 -46 -72 -58 4 -7 2 -8 -5 -4 -6 4
-14 0 -17 -8 -3 -9 -10 -14 -14 -11 -4 3 -10 -2 -14 -10 -3 -8 -12 -15 -20
-15 -9 0 -23 -11 -32 -25 -19 -29 -80 -69 -93 -61 -5 3 -11 0 -14 -8 -3 -8
-31 -26 -63 -41 -45 -22 -58 -24 -65 -13 -6 9 -9 6 -9 -11 0 -20 -2 -21 -15
-11 -12 10 -15 10 -15 0 0 -7 -7 -10 -16 -6 -8 3 -12 2 -9 -4 3 -5 -3 -8 -12
-8 -10 0 -38 -3 -63 -6 -25 -4 -61 -9 -80 -12 -19 -2 -55 -6 -80 -9 -25 -3
-51 -6 -57 -6 -7 0 -41 0 -75 0 -127 0 -179 3 -278 17 -30 4 -63 7 -72 8 -10
0 -18 4 -18 9 0 5 -9 7 -20 4 -11 -3 -18 -2 -15 2 2 4 -12 8 -32 9 -20 1 -43
8 -53 17 -9 8 -24 15 -33 15 -9 0 -19 5 -22 11 -4 5 -17 14 -28 20 -34 14 -56
29 -136 94 -41 33 -102 83 -136 110 -86 69 -204 174 -234 209 -14 16 -39 41
-54 55 -33 29 -247 307 -247 319 0 5 -14 28 -30 51 -17 22 -45 69 -62 104 -18
34 -37 65 -43 69 -5 4 -7 8 -2 8 4 0 -4 18 -18 40 -14 22 -25 46 -25 53 0 7
-5 18 -12 25 -21 21 2 26 25 5 31 -29 106 -65 122 -59 7 2 16 2 19 -1 3 -3 37
-8 76 -9 39 -2 76 -6 82 -10 7 -5 8 -3 4 5 -6 9 12 11 78 5 54 -4 86 -3 86 3
0 5 -6 10 -12 11 -7 0 -49 8 -93 16 -44 8 -81 15 -83 16 -2 0 0 4 3 10 3 5 0
7 -9 4 -18 -7 -119 21 -161 44 -41 23 -50 31 -105 82 -46 43 -50 49 -50 69 0
5 -18 28 -40 51 -50 54 -52 66 -2 19 66 -64 155 -118 222 -136 90 -25 296 -24
404 1 311 72 565 295 693 610 18 45 33 75 33 68 0 -7 -6 -28 -14 -47 -8 -19
-18 -56 -22 -82 -4 -26 -13 -57 -21 -69 -7 -11 -11 -23 -8 -26 6 -6 -55 -128
-90 -183 -21 -31 -87 -107 -118 -134 -10 -9 -37 -33 -60 -53 -23 -21 -45 -38
-49 -38 -9 0 -108 -68 -123 -84 -20 -21 -111 -51 -190 -62 -47 -6 -48 -7 -21
-15 17 -5 37 -4 47 2 15 8 17 6 12 -7 -5 -14 -3 -15 15 -5 12 7 22 17 23 24 0
7 5 2 11 -9 9 -20 12 -21 29 -6 10 8 16 19 14 22 -3 4 6 5 18 3 12 -2 33 6 47
17 21 17 22 19 5 14 -15 -4 -14 -2 4 9 14 8 31 13 38 10 12 -5 56 24 124 82
19 16 53 44 74 60 102 80 211 242 260 390 31 94 52 312 31 332 -7 7 65 147 82
160 13 9 13 12 3 13 -11 0 -11 3 -1 15 6 8 15 14 18 13 8 -1 37 9 69 25 17 7
38 7 76 -2 42 -9 60 -20 87 -52 19 -23 41 -48 48 -55 8 -8 16 -40 19 -72 5
-71 31 -227 43 -267 5 -16 18 -58 28 -92 14 -44 16 -63 8 -67 -6 -2 -3 -5 7
-5 10 -1 16 -5 12 -10 -5 -10 59 -142 84 -173 8 -9 19 -14 24 -11 6 4 7 1 2
-6 -9 -15 72 -101 160 -169 73 -56 93 -73 110 -89 8 -7 18 -13 23 -13 6 0 12
-4 14 -8 2 -5 15 -15 30 -23 125 -66 154 -82 158 -89 3 -4 18 -9 33 -12 31 -6
24 7 -8 16 -11 3 -3 3 18 0 46 -6 157 6 157 17 0 11 -28 18 -90 20 -30 1 -67
8 -81 15 -15 7 -29 10 -33 7 -3 -4 -6 -1 -6 5 0 7 -5 12 -11 12 -5 0 -7 -6 -3
-12 4 -7 -2 -5 -13 5 -12 10 -27 15 -37 11 -11 -4 -16 -2 -14 7 2 8 -4 13 -14
13 -10 -1 -15 2 -12 7 3 5 -2 9 -10 9 -9 0 -16 4 -16 8 0 5 -25 19 -55 31 -31
13 -52 27 -49 33 4 6 1 9 -7 6 -11 -4 -89 63 -170 145 -30 31 -109 147 -128
187 -11 23 -10 22 14 -5 128 -144 234 -228 376 -298 115 -57 223 -86 352 -94
79 -5 97 -9 92 -20 -3 -8 -5 -28 -5 -43 0 -16 -6 -35 -13 -42 -8 -6 -12 -23
-11 -37 2 -15 1 -19 -2 -10 -6 18 -53 17 -99 -2 -30 -12 -29 -13 33 -22 59 -8
62 -10 62 -36 0 -42 -18 -132 -61 -305 -22 -87 -37 -161 -35 -163 3 -3 9 12
15 33 6 22 17 60 25 87 8 26 12 47 9 47 -3 0 -1 6 5 13 10 13 27 76 24 90 -1
4 4 20 12 35 7 15 16 60 20 101 3 41 16 113 27 160 37 160 37 161 26 154 -6
-4 -7 -1 -1 8 5 8 10 30 10 49 1 19 9 62 17 95 8 33 14 69 14 80 1 75 24 214
47 280 5 12 2 10 -7 -5 -22 -38 -54 -180 -72 -320 -18 -143 -30 -208 -38 -217
-8 -8 -187 14 -267 33 -149 36 -363 165 -481 290 -131 139 -218 358 -234 588
-7 97 -8 101 -42 133 -18 19 -38 31 -43 28 -6 -4 -10 -1 -10 5 0 6 -4 8 -10 5
-5 -3 -10 -1 -10 5 0 8 -6 7 -21 -1 -22 -11 -113 -8 -126 5 -11 11 4 17 46 18
23 0 41 5 41 10 0 6 9 8 20 5 30 -8 13 13 -24 29 -17 7 -23 13 -14 14 47 1
168 -75 180 -113 6 -18 7 -17 5 8 -2 32 -44 67 -132 110 -66 33 -98 31 -169
-8z m79 4 c-11 -4 -22 -18 -25 -31 -5 -21 -33 -45 -80 -67 -25 -12 -50 -37
-50 -51 0 -7 -4 -10 -10 -7 -5 3 -10 0 -11 -7 0 -7 -5 0 -11 15 -8 21 -6 33 6
51 15 23 109 84 151 98 29 9 54 8 30 -1z m-201 -435 c-3 -15 -8 -25 -11 -23
-2 3 -1 17 3 31 3 15 8 25 11 23 2 -3 1 -17 -3 -31z m-1712 -100 c8 -7 24 -16
35 -20 12 -4 25 -16 28 -27 4 -10 11 -19 16 -19 5 0 9 -7 9 -15 0 -8 5 -15 11
-15 5 0 7 -5 4 -10 -4 -6 -2 -17 5 -25 6 -7 12 -36 13 -64 0 -28 5 -51 10 -51
5 0 7 -8 4 -19 -4 -16 -1 -39 18 -151 8 -43 31 -101 38 -93 4 3 7 -2 7 -11 0
-10 9 -57 21 -103 37 -154 13 -180 -79 -86 -74 76 -107 145 -122 253 -6 47
-16 99 -22 115 -20 59 -57 199 -58 224 -4 62 1 101 16 115 19 20 29 20 46 2z
m2238 -150 c0 -12 -5 -7 -19 24 -11 24 -11 24 3 6 9 -11 16 -24 16 -30z m630
-587 c0 -5 5 -7 10 -4 6 3 10 1 10 -5 0 -7 -7 -9 -16 -6 -9 3 -20 6 -25 6 -5
0 -9 5 -9 10 0 6 7 10 15 10 8 0 15 -5 15 -11z"/>
<path d="M2995 3870 c3 -5 8 -10 11 -10 2 0 4 5 4 10 0 6 -5 10 -11 10 -5 0
-7 -4 -4 -10z"/>
<path d="M5167 3033 c-33 -9 -6 -23 45 -23 61 0 97 -20 132 -74 35 -54 50
-110 38 -144 -5 -15 -42 -76 -81 -137 -40 -60 -74 -118 -78 -127 -3 -10 -9
-18 -14 -18 -5 0 -9 -7 -9 -17 0 -25 -153 -221 -217 -278 -15 -13 -19 -25 -14
-34 11 -18 -10 -67 -63 -151 -141 -217 -157 -249 -163 -329 -3 -43 -1 -61 6
-57 15 10 3 -50 -20 -96 -11 -21 -19 -39 -19 -42 0 -2 51 -21 113 -41 185 -61
207 -73 227 -118 23 -52 14 -78 -50 -144 -118 -119 -280 -124 -493 -16 -74 37
-101 46 -151 48 -34 2 -65 0 -71 -3 -5 -4 -21 -8 -35 -10 -36 -5 -140 -53
-140 -65 0 -6 -3 -7 -7 -4 -3 4 -15 0 -25 -10 -10 -9 -18 -13 -18 -9 0 3 -14
-1 -31 -10 -25 -12 -37 -14 -56 -5 -13 6 -22 7 -18 2 3 -5 -5 -17 -17 -25 -12
-9 -19 -16 -15 -16 4 0 3 -9 -3 -20 -8 -15 -5 -31 12 -70 14 -33 24 -46 30
-38 5 9 8 8 8 -4 0 -10 -1 -19 -2 -20 -1 -2 4 -14 11 -27 7 -13 8 -21 3 -17
-6 4 -8 -2 -5 -14 5 -20 14 -24 43 -20 27 3 58 41 93 114 57 116 104 148 235
161 72 7 73 7 140 -33 93 -56 162 -77 252 -77 92 0 163 30 249 104 61 53 129
101 142 101 5 0 9 -5 9 -11 0 -5 -5 -7 -12 -3 -7 4 -8 3 -4 -5 4 -6 11 -9 16
-6 5 3 23 -15 40 -40 41 -60 130 -106 217 -113 83 -6 112 7 141 66 29 60 28
70 -3 64 -29 -5 -165 28 -165 40 0 4 -6 8 -12 8 -19 1 -81 61 -98 95 -8 17
-21 39 -30 50 -14 19 -14 19 4 5 18 -14 19 -14 9 4 -8 15 -2 37 32 110 36 75
95 232 95 251 0 3 -4 5 -9 5 -5 0 -17 -25 -27 -56 -22 -70 -88 -201 -117 -233
-19 -20 -65 -45 -76 -41 -2 1 -7 -4 -11 -10 -4 -6 -26 -14 -50 -17 -32 -5 -41
-3 -36 6 4 6 4 11 -1 10 -20 -4 -27 2 -13 12 13 9 12 10 -2 5 -21 -6 -169 44
-163 55 3 4 -5 5 -17 2 -19 -4 -20 -3 -8 7 12 9 11 10 -9 5 -16 -5 -21 -4 -17
4 4 6 0 11 -9 11 -13 0 -16 6 -11 26 4 14 3 23 -2 20 -5 -3 -6 12 -2 37 5 23
6 45 4 49 -2 3 11 51 30 105 32 94 58 149 96 203 10 14 30 48 44 75 48 89 80
139 145 229 82 116 269 426 298 496 27 65 29 107 7 158 -39 94 -157 159 -247
135z"/>
<path d="M4976 2844 c-35 -63 -33 -70 5 -10 17 26 28 50 26 53 -3 2 -16 -17
-31 -43z"/>
<path d="M2547 2823 c-12 -21 -29 -51 -36 -68 -15 -34 -23 -165 -9 -165 5 0 8
-6 6 -12 -7 -29 45 -90 96 -112 143 -65 291 -65 422 -1 103 51 140 187 82 305
-33 67 -55 96 -65 85 -5 -4 -3 -10 4 -12 6 -2 17 -28 24 -57 10 -46 9 -61 -6
-106 -24 -72 -49 -95 -134 -120 -89 -27 -199 -24 -281 8 -100 39 -134 129 -91
242 11 27 17 50 15 50 -2 0 -14 -17 -27 -37z"/>
<path d="M1712 2572 c-14 -10 107 -52 149 -52 25 0 99 26 99 34 0 6 -68 -2
-80 -9 -6 -3 -25 1 -43 10 -39 19 -107 29 -125 17z"/>
<path d="M1615 2560 c-7 -12 2 -12 30 0 19 8 19 9 -2 9 -12 1 -25 -3 -28 -9z"/>
<path d="M3930 2560 c0 -6 7 -10 15 -10 8 0 15 2 15 4 0 2 -7 6 -15 10 -8 3
-15 1 -15 -4z"/>
<path d="M3633 2459 c-22 -23 -14 -39 30 -59 23 -11 52 -27 65 -36 21 -15 22
-15 16 0 -3 9 -2 16 3 16 6 0 14 10 20 23 8 17 6 26 -7 40 -22 23 -110 34
-127 16z"/>
<path d="M1948 2447 c-19 -15 -19 -35 2 -66 l15 -22 45 23 c54 28 61 37 49 60
-12 22 -84 25 -111 5z"/>
<path d="M2010 2358 c0 -13 8 -40 19 -60 24 -48 90 -141 108 -151 7 -5 11 -13
7 -18 -3 -5 -2 -9 3 -8 21 4 24 -2 12 -18 -12 -16 -12 -17 1 -7 12 9 25 5 62
-21 26 -18 44 -36 40 -40 -4 -5 -1 -5 7 0 9 5 18 3 25 -6 9 -12 59 -41 76 -43
3 -1 11 -5 18 -9 6 -5 16 -5 22 -2 6 3 7 -1 4 -9 -3 -9 -1 -16 6 -16 6 0 8 -4
5 -10 -3 -5 -2 -10 4 -10 5 0 12 6 15 13 3 9 8 8 15 -4 10 -15 73 -35 95 -30
4 1 14 -3 20 -9 7 -5 16 -7 19 -3 4 3 7 1 7 -5 0 -7 5 -12 11 -12 5 0 7 5 4
10 -3 6 1 10 10 10 9 0 13 -4 10 -10 -4 -6 9 -10 32 -11 21 -1 61 -3 88 -5 86
-6 128 -6 190 1 33 4 69 7 80 9 11 1 25 4 30 8 6 3 18 4 28 3 9 -2 17 2 17 8
0 5 3 8 6 4 3 -3 25 1 47 10 23 8 47 16 54 17 7 1 15 5 19 8 3 4 12 4 20 1 14
-5 20 12 7 20 -5 2 -2 2 6 0 7 -2 30 7 50 19 20 13 40 23 46 23 5 0 53 29 105
65 52 36 99 64 105 62 5 -2 7 0 3 3 -7 7 78 126 95 133 4 2 7 14 7 27 0 13 5
27 10 30 6 3 10 18 10 32 0 20 -4 24 -17 20 -10 -3 -64 -22 -120 -42 -182 -64
-502 -115 -723 -115 -169 0 -388 26 -560 66 -74 18 -229 72 -247 87 -10 7 -13
3 -13 -15z m827 -299 c215 -1 301 -5 296 -13 -3 -6 0 -5 7 1 11 10 17 10 29 0
8 -7 12 -7 8 -1 -5 8 4 8 33 1 23 -7 36 -15 32 -21 -3 -6 2 -5 11 3 12 9 17
10 17 2 0 -7 4 -10 9 -6 5 3 12 1 16 -4 8 -14 -29 -35 -110 -62 -66 -21 -85
-23 -345 -22 l-275 0 -103 36 c-56 20 -107 39 -113 42 -12 8 7 35 25 35 6 0 4
-5 -4 -10 -8 -5 -10 -10 -4 -10 6 0 17 7 24 15 10 12 16 13 27 4 10 -9 12 -9
8 3 -5 12 5 14 52 12 32 -1 194 -3 360 -5z m223 -149 c-8 -5 -19 -10 -25 -10
-5 0 -3 5 5 10 8 5 20 10 25 10 6 0 3 -5 -5 -10z m-333 -16 c-3 -3 -12 -4 -19
-1 -8 3 -5 6 6 6 11 1 17 -2 13 -5z"/>
<path d="M3340 1912 c-30 -15 -57 -29 -60 -32 -9 -9 -65 -34 -72 -32 -5 1 -8
-3 -8 -9 0 -6 -9 -9 -20 -6 -11 3 -20 2 -20 -3 0 -7 -55 -22 -64 -17 -2 1 -13
-7 -25 -17 -12 -11 -21 -16 -21 -12 0 4 -9 2 -20 -4 -47 -25 -279 -33 -341
-11 -16 5 -27 6 -24 2 3 -5 -4 -7 -15 -4 -11 3 -20 10 -20 15 0 5 -4 7 -9 4
-5 -4 -11 -2 -13 3 -1 6 -15 12 -30 15 -15 2 -44 12 -65 21 -88 39 -148 69
-153 74 -3 4 -18 12 -35 19 l-30 14 21 -21 c12 -11 24 -24 25 -29 6 -15 142
-102 169 -109 14 -3 30 -9 35 -13 18 -12 99 -31 140 -31 60 -2 241 -2 314 0
105 2 245 65 363 163 22 19 44 48 35 48 -1 0 -27 -13 -57 -28z"/>
<path d="M5408 826 c-10 -20 -18 -47 -18 -59 1 -18 5 -15 21 16 11 21 19 48
17 59 -2 18 -6 15 -20 -16z"/>
</g>
</svg>
